<?xml version="1.0" encoding="UTF-8" standalone="no"?><!DOCTYPE svg PUBLIC "-//W3C//DTD SVG 1.1//EN" "http://www.w3.org/Graphics/SVG/1.1/DTD/svg11.dtd"><svg width="100%" height="100%" viewBox="0 0 2084 2084" version="1.1" xmlns="http://www.w3.org/2000/svg" xmlns:xlink="http://www.w3.org/1999/xlink" xml:space="preserve" xmlns:serif="http://www.serif.com/" style="fill-rule:evenodd;clip-rule:evenodd;stroke-linejoin:round;stroke-miterlimit:2;"><g id="Background"><path d="M1945.663,5.991c159.946,24.605 131.551,193.349 131.868,264.39c0.484,108.211 4.621,1647.161 -1.815,1685.005c-11.169,65.672 -73.04,122.429 -147.242,124.511c-0.283,0.008 -1760.444,0.81 -1779.233,-0.2c-73.554,-3.954 -142.101,-67.419 -145.079,-147.301c-0.036,-0.957 -1.671,-1766.496 0.869,-1792.628c6.82,-70.187 63.95,-134.215 149.844,-135.244c269.104,-3.225 1564.385,-0.843 1700.418,-0.593c63.878,0.117 63.394,0.048 90.37,2.059Z" style="fill:#e86421;fill-opacity:1;"/><path d="M401.846,1375.164c-41.985,-69.52 -53.636,-81.69 -49.655,-313.571c3.334,-194.169 118.631,-206.917 94.606,-250.043c-37.01,-66.435 -67.272,-60.523 -65.034,-222.371c2.094,-151.493 120.526,-252.138 257.283,-262.35c117.178,-8.75 162.366,44.519 185.637,23.013c77.682,-71.787 72.951,-78.072 72.861,-107.932c-0.249,-82.017 65.066,-98.122 90.421,-94.735c74.063,9.895 45.895,59.617 84.124,73.724c8.294,3.061 77.115,28.457 57.523,95.214c-20.616,70.245 -111.317,61.377 -118.754,63.084c-16.865,3.869 -83.309,79.233 -83.675,79.697c-13.128,16.672 20.233,41.74 24.399,119.009c12.041,223.336 -96.575,222.037 -56.44,265.078c80.668,86.509 96.712,113.9 92.313,366.598c-5.818,334.242 -424.004,388.988 -585.609,165.587Z" style="fill:#fdfdfd;"/><path d="M1324.459,1312.018c6.413,24.091 16.374,17.662 260.558,18.19c123.577,0.267 149.778,-10.062 150.16,50.123c0.421,66.284 9.033,109.078 -43.159,109.602c-44.607,0.448 -535.832,5.384 -557.61,-0.85c-40.882,-11.702 -24.554,-157.156 24.411,-244.374c98.761,-175.916 356.288,-238.608 375.957,-302.52c30.162,-98.011 -157.837,-198.088 -251.206,-27.104c-26.151,47.889 -42.895,37.066 -119.417,-9.756c-14.021,-8.579 -67.153,-21.525 12.032,-126.662c176.041,-233.735 591.035,-95.181 537.994,191.777c-28.87,156.189 -173.979,159.149 -346.92,287.188c-35.084,25.975 -41.344,49.026 -42.8,54.387Z" style="fill:#fdfdfd;"/><path d="M546.993,1003.944c56.925,-123.008 198.037,-87.643 237.292,-15.713c8.704,15.949 20.586,37.722 17.077,227.038c-2.906,156.791 -190.46,165.755 -245.514,67.579c-31.053,-55.375 -18.704,-247.8 -8.855,-278.904Z" style="fill:#e96421;"/><path d="M764.581,589.101c0.034,4.907 22.853,161.481 -102.941,158.001c-119.227,-3.298 -107.775,-182.644 -72.209,-225.43c39.382,-47.376 163.97,-63.986 175.149,67.428Z" style="fill:#e96421;"/><path d="M914.481,423.499c-23.164,17.231 -22.256,-2.338 -57.597,-31.345c-19.862,-16.303 -0.813,-19.45 56.475,-83.435c44.233,-49.405 -4.45,-109.51 51.929,-125.094c51.142,-14.137 82.326,56.184 33.045,96.81c-32.403,26.713 2.624,25.202 6.254,23.155c40.462,-22.811 27.14,-64.635 68.247,-44.965c38.788,18.561 30.123,79.626 -22.907,84.022c-39.457,3.271 -46.471,-9.841 -84.842,29.645c-25.34,26.076 -25.079,25.537 -50.603,51.206Z" style="fill:#e96322;"/><path d="M789.651,1721.774c11.917,-73.515 94.648,-59.298 108.097,-11.18c9.45,33.81 2.753,99.79 1.877,108.419c-0.921,9.074 -22.194,19.2 -23.293,-6.099c-0.873,-20.108 0.483,-19.614 -0.573,-39.84c-0.614,-11.768 -46.55,-9.275 -50.66,-9.052c-20.655,1.121 -6.515,58.348 -18.25,63.643c-24.856,11.215 -17.726,-54.791 -17.198,-105.891Z" style="fill:#f7f5f0;"/><path d="M1276.222,1795.39c-2.672,-4.61 -28.427,-49.049 -32.985,-57.865c-29.042,-56.185 6.447,103.178 -28.828,89.959c-12.109,-4.537 -7.032,-144.872 -4.017,-149.24c18.287,-26.485 55.373,52.439 71.803,82.711c21.28,39.208 11.329,-40.355 13.31,-73.521c1.077,-18.021 22.369,-17.635 23.408,0.458c7.867,136.989 -4.947,141.359 -15.841,139.247c-16.667,-3.231 -12.498,-9.061 -26.851,-31.751Z" style="fill:#faf8f5;"/><path d="M456.234,1813.124c-0.587,-37.356 -0.491,-37.12 -0.634,-40.345c-0.713,-16.074 -52.272,-9.647 -52.9,-9.624c-22.879,0.819 1.322,76.853 -29.648,63.806c-9.979,-4.204 -10.503,-147.73 0.801,-151.896c25.189,-9.283 17.591,55.413 18.718,57.839c3.575,7.697 45.482,7.138 49.48,7.085c20.292,-0.271 13.613,-51.109 13.645,-52.099c0.611,-18.704 17.058,-14.98 20.288,-11.774c7.796,7.735 5.274,146.123 0.6,149.078c-13.534,8.557 -16.679,3.527 -20.35,-12.071Z" style="fill:#f8f4ee;"/><path d="M1660.304,1784.474c-0.126,-42.67 0.564,-81.528 -2.427,-85.137c-5.05,-6.093 -22.332,-3.316 -26.797,-7.217c-28.354,-24.768 83.945,-25.993 87.155,-9.82c2.925,14.738 -25.929,13.674 -27.563,14.267c-7.436,2.695 -10.632,4.916 -6.062,99.634c0.87,18.022 9.71,8.204 30.109,9.882c11.079,0.911 13.734,11.387 9.69,17.257c-6.579,9.548 -98.509,4.154 -98.832,3.989c-2.163,-1.106 -19.324,-18.644 21.294,-21.793c14.821,-1.149 11.728,-6.446 13.433,-21.061Z" style="fill:#f7f2ec;"/><path d="M871.078,1709.858c13.098,37.509 -7.426,36.847 -46.006,31.964c-32.748,-4.145 6.08,-80.698 46.006,-31.964Z" style="fill:#ea6b2c;"/></g></svg>